# xmcd
#
# Track frame offsets: 
#        150
#        13212
#        29027
#        40480
#        57917
#        73002
#        87377
#        102237
#        115472
#        127675
#        140252
#        161002
#
# Disc length: 2332 seconds
#
# Revision: 4
# Processed by: cddbd v1.5.2PL0 Copyright (c) Steve Scherf et al.
# Submitted via: ExactAudioCopy v1.3
#
DISCID=a9091a0c
DTITLE=LeAnn Rimes - LeAnn Rimes
DYEAR=1999
DGENRE=Country
TTITLE0=Crazy
TTITLE1=Don't Worry
TTITLE2=Leavin' On Your Mind
TTITLE3=Faded Love
TTITLE4=Born To Lose
TTITLE5=Cryin' Time
TTITLE6=She's Got You
TTITLE7=I Fall To Pieces
TTITLE8=Your Cheatin' Heart
TTITLE9=Lovesick Blues
TTITLE10=Me And Bobby McGee
TTITLE11=Big Deal
EXTD=YEAR: 1999
EXTT0=
EXTT1=
EXTT2=
EXTT3=
EXTT4=
EXTT5=
EXTT6=
EXTT7=
EXTT8=
EXTT9=
EXTT10=
EXTT11=
PLAYORDER=
